# xmcd
#
# Track frame offsets: 
#        150
#        19416
#        49026
#        69881
#        96812
#        116093
#        135942
#        153933
#        178428
#        194683
#        217933
#
# Disc length: 3183 seconds
#
# Revision: 0
# Processed by: cddbd v1.5.2PL0 Copyright (c) Steve Scherf et al.
# Submitted via: ExactAudioCopy v1.0b3
#
DISCID=980c6d0b
DTITLE=Fo'Reel - Heavy Water
DYEAR=2014
DGENRE=Blues
TTITLE0=Breakin' Up Somebody's Home
TTITLE1=Heavy Water
TTITLE2=Leave Your Love Alone
TTITLE3=Blues
TTITLE4=Gate
TTITLE5=What I Can Do
TTITLE6=What's Goin' On In My Home
TTITLE7=Just As I Am
TTITLE8=Shake N' Bake
TTITLE9=Outside Love
TTITLE10=Tator
EXTD=
EXTT0=
EXTT1=
EXTT2=
EXTT3=
EXTT4=
EXTT5=
EXTT6=
EXTT7=
EXTT8=
EXTT9=
EXTT10=
PLAYORDER=
